<?xml version="1.0" standalone="no"?>
<!DOCTYPE svg PUBLIC "-//W3C//DTD SVG 20010904//EN"
 "http://www.w3.org/TR/2001/REC-SVG-20010904/DTD/svg10.dtd">
<svg version="1.0" xmlns="http://www.w3.org/2000/svg"
 width="370.000000pt" height="370.000000pt" viewBox="0 0 370.000000 370.000000"
 preserveAspectRatio="xMidYMid meet">
<metadata>
Created by potrace 1.14, written by Peter Selinger 2001-2017
</metadata>
<g transform="translate(0.000000,370.000000) scale(0.100000,-0.100000)"
fill="#000000" stroke="none">
<path d="M800 3625 c0 -20 -5 -25 -25 -25 -20 0 -25 -5 -25 -25 0 -20 -5 -25
-25 -25 -20 0 -25 -5 -25 -25 0 -20 -5 -25 -25 -25 -20 0 -25 -5 -25 -25 0
-20 -5 -25 -25 -25 -20 0 -25 -5 -25 -25 0 -20 -5 -25 -25 -25 -20 0 -25 -5
-25 -25 0 -20 -5 -25 -25 -25 -20 0 -25 -5 -25 -25 0 -20 -5 -25 -25 -25 -20
0 -25 -5 -25 -25 0 -20 -5 -25 -25 -25 -20 0 -25 -5 -25 -25 0 -20 -5 -25 -25
-25 -20 0 -25 -5 -25 -25 0 -20 -5 -25 -25 -25 -20 0 -25 -5 -25 -25 0 -20 -5
-25 -25 -25 -20 0 -25 -5 -25 -25 0 -20 -5 -25 -25 -25 -20 0 -25 -5 -25 -25
0 -20 -5 -25 -25 -25 -20 0 -25 -5 -25 -25 l0 -25 1351 0 1351 0 19 23 c10 12
18 29 19 38 0 9 7 22 15 29 8 7 15 18 15 24 0 17 93 106 111 106 9 0 26 11 39
25 18 20 33 25 69 25 l46 0 215 215 215 215 -1408 0 -1407 0 0 -25z"/>
<path d="M3450 3415 l-195 -195 61 0 c52 0 64 -4 84 -25 13 -14 31 -25 40 -25
20 0 90 -71 90 -91 0 -9 11 -26 25 -39 20 -19 25 -33 25 -76 0 -34 5 -56 15
-64 10 -9 15 -32 15 -77 0 -47 -4 -65 -15 -69 -8 -4 -15 -14 -15 -23 0 -10
-11 -28 -25 -41 -14 -13 -25 -30 -25 -38 0 -19 -41 -62 -61 -62 -8 0 -26 -11
-39 -25 -13 -14 -31 -25 -41 -25 -9 0 -22 -7 -29 -15 -7 -8 -25 -15 -41 -15
-15 0 -31 -4 -34 -10 -3 -5 -23 -10 -44 -10 -20 0 -46 -7 -57 -15 -10 -8 -27
-15 -36 -15 -10 0 -25 -16 -34 -36 -9 -20 -23 -38 -31 -41 -7 -3 -13 -12 -13
-20 0 -9 -13 -31 -30 -50 -16 -18 -30 -39 -30 -45 0 -7 -12 -25 -27 -41 l-28
-28 -3 -1025 -2 -1024 25 0 c20 0 25 5 25 25 0 20 5 25 25 25 20 0 25 5 25 25
0 20 5 25 25 25 20 0 25 5 25 25 0 20 5 25 25 25 20 0 25 5 25 25 0 20 5 25
25 25 20 0 25 5 25 25 0 20 5 25 25 25 20 0 25 5 25 25 0 20 5 25 25 25 20 0
25 5 25 25 0 20 5 25 25 25 20 0 25 5 25 25 0 20 5 25 25 25 20 0 25 5 25 25
0 20 5 25 25 25 20 0 25 5 25 25 0 20 5 25 25 25 20 0 25 5 25 25 0 20 5 25
25 25 20 0 25 5 25 25 0 20 5 25 25 25 20 0 25 5 25 25 0 20 5 25 25 25 l25 0
0 1405 c0 773 -1 1405 -3 1405 -1 0 -90 -88 -197 -195z"/>
<path d="M3081 3046 l-134 -134 6 -108 c5 -82 10 -110 22 -116 22 -13 20 -96
-2 -121 -15 -16 -19 -43 -22 -148 -1 -71 0 -129 3 -129 13 0 46 36 46 50 0 9
11 27 24 39 13 13 27 34 30 47 4 13 11 24 16 24 6 0 10 10 11 23 0 12 15 34
36 51 30 25 44 30 96 30 34 1 67 4 72 7 6 4 26 10 45 14 39 9 180 138 180 166
0 9 7 22 15 29 8 7 15 21 15 31 0 11 5 19 10 19 6 0 10 9 10 19 0 11 -4 23
-10 26 -5 3 -10 26 -10 51 0 30 -5 46 -15 50 -8 4 -15 14 -15 23 0 9 -33 49
-73 89 -59 58 -78 72 -104 72 -18 0 -33 6 -37 15 -3 10 -19 15 -43 15 -36 0
-47 -9 -172 -134z m236 -88 c13 -12 23 -28 23 -36 0 -9 8 -24 17 -34 14 -16
15 -22 5 -36 -7 -9 -17 -27 -22 -40 -19 -44 -35 -52 -103 -52 -59 0 -67 3 -96
32 -25 26 -31 40 -31 77 0 37 6 51 32 78 29 30 37 33 92 33 48 0 64 -4 83 -22z"/>
<path d="M3018 3091 c-32 -32 -58 -65 -58 -73 0 -7 -6 -21 -12 -28 -7 -8 27
23 75 70 48 46 87 86 87 87 0 2 -8 3 -17 3 -10 0 -44 -27 -75 -59z"/>
<path d="M50 1475 l0 -1425 1425 0 1425 0 0 1022 0 1021 -25 -23 c-14 -13 -25
-30 -25 -38 0 -8 -13 -30 -30 -49 -16 -18 -30 -38 -30 -44 0 -5 -11 -22 -25
-37 -14 -15 -25 -35 -25 -44 0 -10 -4 -18 -8 -18 -15 0 -46 -84 -34 -88 7 -2
12 -16 12 -32 0 -16 7 -35 15 -44 11 -11 15 -38 15 -109 0 -72 -4 -98 -15
-107 -8 -7 -15 -18 -15 -25 0 -7 -11 -23 -25 -36 -13 -13 -25 -31 -25 -40 0
-17 -60 -79 -77 -79 -15 0 -77 -33 -81 -42 -5 -12 -282 -10 -282 1 0 5 -10 13
-23 16 -28 9 -112 89 -143 137 -13 21 -24 51 -24 67 0 16 -6 31 -15 35 -9 3
-15 18 -15 39 0 35 -24 67 -51 67 -8 0 -23 7 -33 15 -11 8 -32 15 -48 15 -15
0 -28 5 -28 10 0 6 -8 10 -19 10 -10 0 -24 7 -31 15 -7 8 -21 15 -31 15 -10 0
-21 5 -24 10 -3 6 -16 10 -29 10 -12 0 -31 7 -42 15 -10 8 -26 15 -35 15 -9 0
-22 7 -29 15 -13 16 -96 21 -102 7 -4 -11 -127 -72 -143 -72 -7 0 -18 -7 -25
-15 -9 -11 -33 -15 -90 -15 -78 0 -140 -20 -140 -46 0 -5 -13 -23 -30 -39 -16
-16 -30 -36 -30 -45 0 -9 -11 -27 -25 -40 -14 -13 -25 -28 -25 -34 0 -6 -18
-30 -40 -54 -22 -24 -40 -49 -40 -56 0 -7 -13 -25 -30 -41 -16 -16 -30 -36
-30 -45 0 -9 -11 -27 -25 -40 -14 -13 -25 -29 -25 -36 0 -6 -7 -17 -15 -24
-20 -16 -20 -84 0 -100 8 -7 15 -25 15 -40 0 -15 7 -33 15 -40 11 -9 15 -33
15 -85 0 -52 -4 -76 -15 -85 -8 -7 -15 -25 -15 -39 0 -16 -10 -37 -25 -51 -14
-13 -25 -31 -25 -40 0 -20 -91 -110 -112 -110 -8 0 -21 -7 -28 -15 -7 -8 -25
-15 -40 -15 -15 0 -33 -7 -40 -15 -16 -19 -44 -19 -60 0 -8 10 -30 15 -63 15
-54 0 -122 27 -152 60 -10 11 -25 20 -33 20 -19 0 -62 41 -62 61 0 8 -11 26
-25 39 -15 14 -25 35 -25 51 0 14 -7 32 -15 39 -21 18 -21 152 0 170 8 7 15
24 15 39 0 14 11 38 25 53 14 15 25 33 25 41 0 18 42 57 62 57 8 0 23 9 34 21
20 22 89 59 110 59 6 0 14 7 18 15 4 11 23 15 79 15 73 0 73 0 115 43 23 23
42 49 42 57 0 8 14 28 30 44 17 16 30 36 30 43 0 8 18 33 40 55 22 23 40 46
40 51 0 5 13 25 30 44 16 18 30 40 30 47 0 7 11 23 25 36 14 13 25 30 25 38 0
8 11 25 25 38 25 23 35 74 15 74 -6 0 -10 62 -10 165 0 175 2 182 53 243 15
18 27 39 27 47 0 8 8 15 18 15 10 0 29 11 42 25 13 14 33 25 45 25 12 0 30 7
41 15 13 10 45 14 105 15 73 0 93 -4 133 -25 26 -14 53 -25 60 -25 7 0 25 -13
39 -30 15 -16 36 -30 47 -30 13 0 20 -7 20 -19 0 -10 11 -29 25 -42 16 -16 25
-35 25 -57 0 -20 6 -35 15 -38 9 -4 15 -19 15 -38 0 -35 52 -96 82 -96 9 0 20
-4 23 -10 3 -5 19 -10 35 -10 16 0 35 -7 44 -15 8 -8 21 -15 28 -15 7 0 22 -7
32 -15 11 -8 32 -15 48 -15 15 0 28 -4 28 -10 0 -5 8 -10 19 -10 10 0 24 -7
31 -15 7 -8 24 -15 39 -15 14 0 32 -4 40 -9 17 -11 57 4 92 36 14 13 32 23 41
23 8 0 21 7 28 15 7 8 26 15 42 15 16 0 36 7 44 15 20 19 88 19 108 0 24 -24
39 -18 93 38 47 49 83 105 83 131 0 7 18 29 40 50 22 21 40 43 40 50 0 7 14
25 30 41 17 16 30 36 30 45 0 9 11 27 25 40 14 13 25 31 25 39 0 9 14 29 30
45 17 16 30 34 30 40 0 5 12 23 28 39 26 27 27 33 27 127 0 79 -3 102 -17 117
-13 14 -18 37 -18 81 l0 62 -1405 0 -1405 0 0 -1425z"/>
<path d="M2887 2453 c-4 -3 -7 -14 -7 -23 0 -10 -11 -26 -25 -36 -14 -10 -25
-27 -25 -36 0 -10 -13 -31 -30 -48 -16 -17 -30 -36 -30 -44 0 -7 -11 -23 -25
-36 -14 -13 -25 -31 -25 -40 0 -10 -11 -26 -25 -36 -14 -10 -25 -26 -25 -35 0
-8 -13 -29 -30 -45 -16 -16 -30 -36 -30 -45 0 -8 -11 -26 -24 -38 -13 -13 -27
-33 -30 -46 -10 -38 -61 -55 -164 -52 -62 1 -95 -2 -103 -10 -7 -7 -20 -13
-29 -13 -9 0 -29 -13 -45 -30 -16 -16 -37 -30 -47 -30 -10 0 -18 -4 -18 -10 0
-6 -32 -10 -75 -10 -43 0 -75 4 -75 10 0 6 -8 10 -19 10 -10 0 -24 7 -31 15
-7 8 -28 15 -47 15 -21 0 -36 6 -39 15 -4 8 -14 15 -24 15 -20 0 -77 27 -85
41 -4 5 -26 9 -49 9 -27 0 -48 6 -56 15 -7 8 -20 15 -30 15 -20 0 -50 31 -50
52 0 9 -7 21 -15 28 -9 8 -15 29 -15 56 0 23 -4 46 -10 49 -5 3 -10 14 -10 23
0 21 -129 142 -152 142 -10 0 -18 4 -18 9 0 5 -18 11 -40 15 -22 3 -40 11 -40
16 0 15 -34 12 -66 -5 -16 -8 -39 -15 -51 -15 -12 0 -25 -4 -28 -10 -3 -5 -14
-10 -23 -10 -22 0 -142 -122 -142 -143 0 -9 -4 -19 -10 -22 -6 -3 -10 -48 -10
-101 0 -56 4 -94 10 -94 6 0 10 -18 10 -39 0 -25 5 -41 15 -45 9 -3 15 -18 15
-35 0 -16 -6 -31 -15 -35 -8 -3 -15 -15 -15 -26 0 -11 -4 -20 -10 -20 -5 0
-13 -12 -16 -27 -4 -16 -29 -49 -56 -75 -26 -27 -48 -54 -48 -62 0 -8 -14 -26
-30 -39 -17 -14 -30 -35 -30 -46 0 -11 -11 -28 -25 -39 -14 -11 -25 -29 -25
-39 0 -11 -13 -30 -30 -43 -16 -13 -30 -31 -30 -40 0 -9 -11 -27 -25 -40 -14
-13 -25 -31 -25 -39 0 -10 -27 -29 -68 -49 -60 -28 -72 -31 -99 -21 -23 7 -37
7 -52 0 -11 -6 -30 -11 -43 -11 -27 0 -168 -135 -168 -161 0 -9 -7 -22 -15
-29 -8 -7 -15 -24 -15 -39 0 -15 -6 -33 -12 -39 -10 -10 -10 -17 0 -32 6 -11
12 -30 12 -44 0 -13 7 -29 15 -36 8 -7 15 -20 15 -29 0 -9 33 -49 72 -88 81
-79 97 -85 218 -86 105 -1 147 13 198 67 24 26 47 46 53 46 5 0 9 11 9 24 0
14 5 28 10 31 6 3 10 19 10 34 0 16 7 34 15 41 19 16 19 59 0 84 -8 11 -15 32
-15 48 0 15 -4 28 -10 28 -5 0 -10 8 -10 19 0 10 -7 24 -15 31 -21 17 -21 108
0 116 8 4 15 16 15 28 0 13 16 35 40 55 22 18 40 40 40 50 0 9 18 34 40 56 21
22 39 47 40 56 0 8 11 26 25 39 14 13 25 29 25 35 0 7 13 28 30 46 16 19 30
39 30 45 0 6 11 21 25 34 14 13 25 31 25 40 0 29 63 80 98 80 18 0 32 -4 32
-10 0 -15 74 -12 106 5 16 8 37 15 46 15 9 0 20 5 23 10 3 6 14 10 23 10 9 0
28 12 41 25 13 14 29 25 36 25 7 0 18 7 25 15 14 16 100 21 100 6 0 -5 15 -12
33 -16 33 -6 70 -20 97 -36 8 -5 22 -12 30 -15 8 -3 29 -12 47 -20 17 -8 38
-14 46 -14 9 0 19 -4 22 -10 3 -5 14 -10 24 -10 10 0 24 -7 31 -15 8 -9 30
-15 56 -15 36 0 44 -3 44 -19 0 -10 7 -24 15 -31 8 -7 15 -20 15 -30 0 -10 7
-23 15 -30 9 -7 15 -29 15 -51 0 -22 6 -49 12 -62 22 -38 112 -127 129 -127 9
0 19 -7 23 -15 3 -9 18 -15 40 -15 19 0 38 -5 41 -10 8 -13 102 -13 110 0 3 6
20 10 37 10 24 0 45 15 109 78 43 42 79 84 79 93 0 9 7 22 15 29 8 7 15 21 15
31 0 10 5 21 10 24 6 3 10 17 10 31 0 13 -4 24 -10 24 -5 0 -10 16 -10 35 0
22 -6 38 -15 41 -12 5 -15 25 -15 91 0 77 2 86 25 107 14 13 25 29 25 36 0 7
18 30 40 51 22 21 40 48 40 59 0 11 7 23 15 26 8 4 15 14 15 23 0 10 11 28 25
41 14 13 25 29 25 35 0 7 9 22 20 35 18 20 20 37 20 152 0 70 -1 128 -3 128
-2 0 -7 -3 -10 -7z m-1571 -325 c23 -27 40 -62 48 -100 5 -24 -2 -36 -46 -83
-68 -72 -88 -72 -157 -4 -68 69 -69 95 -4 161 43 44 52 48 93 48 36 0 51 -5
66 -22z m1131 -450 c13 -12 23 -28 23 -35 0 -8 7 -21 15 -29 8 -9 15 -24 15
-33 0 -10 -7 -24 -15 -31 -8 -7 -15 -19 -15 -28 0 -35 -31 -52 -94 -52 -56 0
-63 3 -98 37 -32 31 -38 44 -38 79 0 36 5 46 41 78 36 31 48 36 92 36 38 0 56
-5 74 -22z m-1900 -710 c29 -28 33 -38 33 -82 0 -43 -5 -55 -32 -83 -29 -30
-38 -33 -88 -33 -52 0 -60 3 -98 38 -35 33 -42 45 -42 78 0 31 7 46 37 76 35
36 41 38 97 38 54 0 63 -3 93 -32z"/>
</g>
</svg>
